<svg xmlns="http://www.w3.org/2000/svg" viewBox="0 0 512 512" width="512" height="512">
  <!-- Bright Blue Background -->
  <rect width="512" height="512" fill="#0052CC"/>

  <!-- Large Flask/Beaker -->
  <g transform="translate(256, 256)">
    <!-- Flask body - LARGE -->
    <path d="M -80 -100 L -80 60 Q -80 120 -30 150 L 30 150 Q 80 120 80 60 L 80 -100 Z"
          fill="#FFFFFF" stroke="#0052CC" stroke-width="4"/>

    <!-- Flask neck - LARGE -->
    <rect x="-40" y="-160" width="80" height="70" fill="#FFFFFF" stroke="#0052CC" stroke-width="4"/>

    <!-- Flask cap/stopper - LARGE YELLOW -->
    <rect x="-50" y="-190" width="100" height="35" fill="#FFD700" stroke="#0052CC" stroke-width="4" rx="5"/>

    <!-- Liquid inside flask - BRIGHT BLUE -->
    <path d="M -75 0 L -75 50 Q -75 100 -30 135 L 30 135 Q 75 100 75 50 L 75 0 Z"
          fill="#FF6B35" opacity="0.9"/>

    <!-- Large Bubbles/reaction indicator - YELLOW -->
    <circle cx="-25" cy="20" r="12" fill="#FFD700"/>
    <circle cx="0" cy="50" r="10" fill="#FFD700"/>
    <circle cx="25" cy="30" r="8" fill="#FFD700"/>

    <!-- Large Molecule atoms - BRIGHT YELLOW -->
    <circle cx="-100" cy="-80" r="15" fill="#FFD700"/>
    <circle cx="-60" cy="-70" r="15" fill="#FFD700"/>
    <circle cx="-80" cy="-20" r="15" fill="#FFD700"/>
    <line x1="-100" y1="-80" x2="-60" y2="-70" stroke="#FFD700" stroke-width="6"/>
    <line x1="-60" y1="-70" x2="-80" y2="-20" stroke="#FFD700" stroke-width="6"/>
  </g>
</svg>
